<?xml version="1.0" encoding="UTF-8" standalone="no"?>
<svg
   id="svg25"
   version="1.1"
   viewBox="0 0 1046.162 300"
   xmlns="http://www.w3.org/2000/svg"
   xmlns:svg="http://www.w3.org/2000/svg">
  <defs
     id="defs20">
    <style
       id="style7">.cls-1{fill:url(#linear-gradient);}</style>
    <linearGradient
       id="linear-gradient"
       x1="3.4000001"
       y1="42.189999"
       x2="258.95999"
       y2="42.189999"
       gradientUnits="userSpaceOnUse"
       gradientTransform="matrix(4.0927694,0,0,4.0927694,-13.866507,-22.510232)">
      <stop
         offset="0"
         stop-color="#0c2426"
         id="stop9" />
      <stop
         offset="0.18"
         stop-color="#0b2d2f"
         id="stop11" />
      <stop
         offset="0.48"
         stop-color="#084447"
         id="stop13" />
      <stop
         offset="0.86"
         stop-color="#02696f"
         id="stop15" />
      <stop
         offset="1"
         stop-color="#00797f"
         id="stop17" />
    </linearGradient>
  </defs>
  <path
     class="cls-1"
     d="m 89.680559,292.22373 c 28.240111,0 41.336971,-15.9618 52.387451,-38.06275 l 49.93178,-99.86357 25.37517,91.26875 c 9.82265,35.19782 22.91951,46.65757 47.88541,46.65757 24.96589,0 40.92769,-8.18553 54.84311,-42.15552 l 37.65347,-92.49659 C 359.80334,243.92906 422.01343,300 506.73376,300 c 84.72033,0 142.42838,-55.25239 154.29741,-125.64802 l 13.09686,73.66985 c 5.72988,30.69577 20.05457,44.2019 44.61119,44.2019 24.55661,0 38.8813,-9.82264 51.15961,-32.33287 l 57.29877,-105.59345 22.51024,94.54297 c 6.9577,28.64939 19.64529,43.38335 45.02046,43.38335 25.37517,0 37.65348,-10.23192 48.70396,-31.9236 L 1040.0216,72.032741 a 52.387448,52.387448 0 0 0 6.1392,-24.965893 c 0,-22.100955 -17.1897,-39.2905864 -42.5648,-39.2905864 -25.3752,0 -37.65351,12.2783084 -47.47616,33.9699864 L 910.28082,139.97271 885.72421,43.383355 C 880.40361,21.691678 868.1253,7.7762616 843.97796,7.7762616 c -15.55252,0 -31.10505,4.5020464 -45.42974,31.5143244 L 746.16077,140.38199 728.15259,44.201909 C 724.05982,18.826739 706.05163,7.7762616 684.76923,7.7762616 A 42.155525,42.155525 0 0 0 640.9766,51.159617 77.762619,77.762619 0 0 0 642.20443,65.48431 l 1.63711,8.185539 C 622.14986,32.742155 577.53867,-3e-7 516.55641,-3e-7 474.81016,-3e-7 427.33403,15.9618 397.86609,54.84311 a 78.990449,78.990449 0 0 0 0.40928,-9.822647 C 397.86609,23.738062 383.95068,7.7762616 358.57551,7.7762616 c -25.37517,0 -36.83493,11.0504774 -45.83902,33.9699864 L 272.62735,146.93042 246.02435,44.201909 C 240.29447,22.919508 229.244,7.7762616 205.09666,7.7762616 c -24.14734,0 -36.01637,7.7762614 -48.29468,34.7885394 L 110.96296,147.74898 88.043451,44.201909 C 82.313574,18.826739 64.305389,7.7762616 42.613711,7.7762616 20.922033,7.7762616 -1.1789219,25.37517 0.04890896,51.159617 A 39.290586,39.290586 0 0 0 1.6860167,62.210095 L 42.204434,242.29195 c 6.139154,26.19372 15.9618,49.93178 47.476125,49.93178 z M 443.70511,152.6603 c 0,-39.29059 29.46794,-70.395635 66.30287,-70.395635 36.83492,0 66.30286,27.830835 66.30286,68.349245 0,40.51842 -27.42155,67.12142 -66.30286,67.12142 -38.88131,0 -66.30287,-28.64938 -66.30287,-65.07503 z"
     id="path22"
     style="fill:url(#linear-gradient)" />
</svg>
